<?xml version="1.0" standalone="no"?>
<!DOCTYPE svg PUBLIC "-//W3C//DTD SVG 20010904//EN"
 "http://www.w3.org/TR/2001/REC-SVG-20010904/DTD/svg10.dtd">
<svg version="1.0" xmlns="http://www.w3.org/2000/svg"
 width="200.000000pt" height="200.000000pt" viewBox="0 0 200.000000 200.000000"
 preserveAspectRatio="xMidYMid meet">
<metadata>
Created by potrace 1.11, written by Peter Selinger 2001-2013
</metadata>
<g transform="translate(0.000000,200.000000) scale(0.100000,-0.100000)"
fill="#000000" stroke="none">
<path d="M1355 1816 c-38 -16 -89 -69 -109 -111 -53 -111 -55 -235 -7 -444 17
-74 34 -146 36 -160 14 -74 104 -464 109 -468 10 -10 141 131 174 188 110 188
120 421 25 615 -31 66 -57 100 -159 218 -44 50 -60 103 -46 145 6 17 10 31 9
31 -1 -1 -15 -7 -32 -14z"/>
<path d="M845 1783 c-47 -11 -153 -58 -195 -86 -187 -124 -293 -323 -292 -547
0 -133 36 -253 106 -357 26 -38 145 -163 156 -163 4 0 41 159 76 325 2 6 15
62 29 125 15 63 31 133 36 155 4 22 33 151 63 287 31 136 56 252 56 258 0 10
-2 11 -35 3z"/>
<path d="M997 1480 c-4 -13 -29 -131 -41 -200 -22 -124 -57 -307 -61 -317 -5
-15 -10 -14 108 -16 49 -1 93 1 98 4 5 3 -2 62 -17 135 -14 71 -28 143 -31
159 -15 99 -51 248 -56 235z"/>
<path d="M854 739 c-3 -5 -7 -23 -9 -41 -3 -18 -11 -61 -18 -96 l-14 -64 25
-9 c68 -26 188 -29 295 -8 65 13 61 3 42 99 -3 14 -8 41 -11 60 -12 71 0 66
-160 67 -79 0 -147 -4 -150 -8z"/>
<path d="M988 355 c-2 -1 -68 -5 -148 -8 -80 -4 -161 -9 -180 -12 -19 -4 -45
-8 -57 -10 -31 -5 -64 -25 -58 -34 2 -5 22 -12 42 -16 21 -5 45 -10 53 -12 38
-8 239 -17 375 -17 254 0 432 21 442 51 9 25 -84 41 -287 49 -74 3 -145 6
-157 8 -13 2 -24 2 -25 1z"/>
</g>
</svg>
